<?xml version="1.0" encoding="UTF-8" standalone="no"?>
<!-- Created with Inkscape (http://www.inkscape.org/) -->

<svg
   width="1280"
   height="769"
   viewBox="0 0 338.66655 203.46459"
   version="1.1"
   id="svg1"
   inkscape:version="1.3.2 (091e20e, 2023-11-25, custom)"
   sodipodi:docname="2logo.svg"
   xmlns:inkscape="http://www.inkscape.org/namespaces/inkscape"
   xmlns:sodipodi="http://sodipodi.sourceforge.net/DTD/sodipodi-0.dtd"
   xmlns:xlink="http://www.w3.org/1999/xlink"
   xmlns="http://www.w3.org/2000/svg"
   xmlns:svg="http://www.w3.org/2000/svg">
  <sodipodi:namedview
     id="namedview1"
     pagecolor="#ffffff"
     bordercolor="#000000"
     borderopacity="0.25"
     inkscape:showpageshadow="2"
     inkscape:pageopacity="0.0"
     inkscape:pagecheckerboard="0"
     inkscape:deskcolor="#d1d1d1"
     inkscape:document-units="mm"
     inkscape:zoom="0.64"
     inkscape:cx="649.21875"
     inkscape:cy="441.40625"
     inkscape:window-width="1920"
     inkscape:window-height="991"
     inkscape:window-x="-9"
     inkscape:window-y="-9"
     inkscape:window-maximized="1"
     inkscape:current-layer="g69"
     showborder="false"
     showguides="true" />
  <defs
     id="defs1">
    <linearGradient
       id="linearGradient62"
       inkscape:collect="always">
      <stop
         style="stop-color:#fffd00;stop-opacity:1;"
         offset="0"
         id="stop62" />
      <stop
         style="stop-color:#000000;stop-opacity:0"
         offset="1"
         id="stop63" />
    </linearGradient>
    <linearGradient
       id="linearGradient59"
       inkscape:collect="always">
      <stop
         style="stop-color:#fffd00;stop-opacity:1;"
         offset="0"
         id="stop60" />
      <stop
         style="stop-color:#666500;stop-opacity:0.72682927"
         offset="0.59857023"
         id="stop69" />
      <stop
         style="stop-color:#2d2d00;stop-opacity:1"
         offset="0.81915414"
         id="stop70" />
      <stop
         style="stop-color:#131300;stop-opacity:1"
         offset="0.92276174"
         id="stop71" />
      <stop
         style="stop-color:#070700;stop-opacity:1"
         offset="0.97122335"
         id="stop72" />
      <stop
         style="stop-color:#000000;stop-opacity:0"
         offset="1"
         id="stop61" />
    </linearGradient>
    <linearGradient
       id="linearGradient57"
       inkscape:collect="always">
      <stop
         style="stop-color:#000000;stop-opacity:0.65853659"
         offset="0"
         id="stop57" />
      <stop
         style="stop-color:#000000;stop-opacity:0.9195122"
         offset="0.55238432"
         id="stop59" />
      <stop
         style="stop-color:#000000;stop-opacity:1"
         offset="1"
         id="stop58" />
    </linearGradient>
    <filter
       inkscape:collect="always"
       style="color-interpolation-filters:sRGB"
       id="filter55"
       x="-0.33177684"
       y="-0.29939788"
       width="1.6658629"
       height="1.5987951">
      <feGaussianBlur
         inkscape:collect="always"
         stdDeviation="3.9135157"
         id="feGaussianBlur55" />
    </filter>
    <filter
       inkscape:collect="always"
       style="color-interpolation-filters:sRGB"
       id="filter56"
       x="-0.094608412"
       y="-0.085378568"
       width="1.1915261"
       height="1.1707565">
      <feGaussianBlur
         inkscape:collect="always"
         stdDeviation="0.97837892"
         id="feGaussianBlur56" />
    </filter>
    <filter
       inkscape:collect="always"
       style="color-interpolation-filters:sRGB"
       id="filter57"
       x="-0.054289784"
       y="-0.048995288"
       width="1.1108888"
       height="1.0979899">
      <feGaussianBlur
         inkscape:collect="always"
         stdDeviation="0.47940567"
         id="feGaussianBlur57" />
    </filter>
    <radialGradient
       inkscape:collect="always"
       xlink:href="#linearGradient57"
       id="radialGradient58"
       cx="167.73897"
       cy="102.19072"
       fx="167.73897"
       fy="102.19072"
       r="169.33333"
       gradientTransform="matrix(1,0,0,0.60682349,1.7539563,40.325159)"
       gradientUnits="userSpaceOnUse" />
    <linearGradient
       inkscape:collect="always"
       xlink:href="#linearGradient59"
       id="linearGradient61"
       x1="140.8452"
       y1="265.54993"
       x2="325.71561"
       y2="263.2113"
       gradientUnits="userSpaceOnUse"
       gradientTransform="translate(-34.051683,-100.10519)" />
    <linearGradient
       inkscape:collect="always"
       xlink:href="#linearGradient62"
       id="linearGradient63"
       x1="140.8452"
       y1="265.54993"
       x2="325.71561"
       y2="263.2113"
       gradientUnits="userSpaceOnUse"
       gradientTransform="translate(-34.051683,-100.10519)" />
  </defs>
  <g
     inkscape:label="Layer 1"
     inkscape:groupmode="layer"
     id="layer1">
    <text
       xml:space="preserve"
       style="font-style:normal;font-variant:normal;font-weight:normal;font-stretch:normal;font-size:43.7658px;font-family:Garamond;-inkscape-font-specification:'Garamond, Normal';font-variant-ligatures:normal;font-variant-caps:normal;font-variant-numeric:normal;font-variant-east-asian:normal;fill:#000000;fill-rule:evenodd;stroke:#000000;stroke-width:1.32292;stroke-linecap:round;stroke-opacity:1;paint-order:stroke markers fill"
       x="249.74248"
       y="98.3834"
       id="text68"><tspan
         sodipodi:role="line"
         id="tspan68"
         style="stroke-width:1.32292"
         x="249.74248"
         y="98.3834" /></text>
    <text
       xml:space="preserve"
       style="font-size:43.7658px;font-family:'Magnolia Script';-inkscape-font-specification:'Magnolia Script, Normal';opacity:1;fill:#fdd400;fill-opacity:1;fill-rule:evenodd;stroke:none;stroke-width:64.3001;stroke-linecap:round;stroke-dasharray:none;stroke-opacity:1;paint-order:stroke markers fill"
       x="146.19147"
       y="118.89687"
       id="text34"><tspan
         sodipodi:role="line"
         id="tspan34"
         style="stroke-width:64.3"></tspan></text>
    <g
       id="g69">
      <rect
         style="opacity:1;fill:#ffd817;fill-opacity:1;fill-rule:evenodd;stroke:none;stroke-width:64.3001;stroke-linecap:round;stroke-dasharray:none;stroke-opacity:1;paint-order:stroke markers fill"
         id="rect47"
         width="338.66666"
         height="184.46338"
         x="0.15959962"
         y="0.1661008" />
      <rect
         style="opacity:1;fill:url(#radialGradient58);fill-opacity:1;fill-rule:evenodd;stroke:none;stroke-width:64.3003;stroke-linecap:round;stroke-dasharray:none;stroke-opacity:1;paint-order:stroke markers fill"
         id="rect57"
         width="338.66666"
         height="205.51089"
         x="0.15959962"
         y="-0.41855103" />
      <g
         id="g67"
         transform="matrix(2.1641303,0,0,2.1641303,-67.862704,-114.39283)"
         style="mix-blend-mode:normal;fill:#ffd817;fill-opacity:1;stroke:#ffd817;stroke-width:0.924159;stroke-dasharray:none;stroke-opacity:1;filter:url(#filter55)">
        <path
           d="m 100.48069,81.673568 c -0.0848,0.08145 -0.17243,0.15589 -0.25632,0.239778 -1.531199,1.531207 -2.624072,2.805577 -3.278866,3.823023 -0.91671,1.460695 -1.536441,3.007049 -1.858802,4.638993 -0.31226,1.621871 -0.332456,3.283799 -0.06046,4.986259 0.271988,1.70246 0.720563,3.209003 1.345138,4.518587 0.0848,0.179342 0.177259,0.358282 0.274918,0.537432 0.250859,0.46019 0.543337,0.91981 0.879016,1.37873 0.168473,0.23033 0.350697,0.46039 0.540536,0.6904 0.351658,0.42606 0.736198,0.85195 1.161169,1.27692 0.09351,0.0935 0.189094,0.18182 0.283704,0.27234 1.281277,1.22581 2.661717,2.18019 4.143927,2.85564 1.58158,0.7152 3.10285,1.09785 4.56355,1.14825 1.4607,0.0504 2.88604,-0.15621 4.27623,-0.6196 1.39018,-0.48354 2.58438,-1.01226 3.58169,-1.58647 0.67114,-0.37876 1.47939,-1.00116 2.40037,-1.82263 0.47523,-0.42388 0.97133,-0.88451 1.51309,-1.42627 0.0381,-0.0381 0.0724,-0.0747 0.11007,-0.11265 0.19232,-0.19386 0.38104,-0.38667 0.56172,-0.57671 0.75081,-0.7897 1.39744,-1.54531 1.94717,-2.269113 0.63434,-0.835212 1.13977,-1.628102 1.50636,-2.375566 0.16119,-0.322353 0.30236,-0.584511 0.42323,-0.785998 -0.22231,-0.418782 -0.56455,-1.022725 -1.00975,-1.786454 -0.16812,-0.288395 -0.42074,-0.707832 -0.62064,-1.045415 -0.30219,-0.510336 -0.56361,-0.957518 -0.93844,-1.580265 -0.0605,-0.08056 -0.20653,-0.246816 -0.43822,-0.498677 -0.16114,0.04029 -0.26689,0.08553 -0.31729,0.135909 l -0.12092,0.241845 c 0.20956,0.572096 0.36405,1.138648 0.4749,1.701188 0.0863,0.437928 0.1482,0.873727 0.17467,1.305864 0.007,0.09659 0.007,0.187536 0.0114,0.282153 h 0.062 c -0.0158,0.09504 -0.0354,0.17615 -0.0517,0.269234 0.0161,0.757023 -0.0486,1.452046 -0.20308,2.07791 -0.0982,0.38758 -0.2417,0.801252 -0.42737,1.239201 -0.17627,0.415776 -0.39032,0.852958 -0.64544,1.314134 -0.20148,0.3828 -0.65495,1.0276 -1.36012,1.93425 l -0.36122,0.37723 -0.33383,0.3483 c -0.43954,0.43955 -0.9206,0.83437 -1.4428,1.18546 -0.85415,0.57425 -1.8186,1.0308 -2.89389,1.36839 -1.74276,0.53391 -3.64175,0.42817 -5.69681,-0.31729 -0.77052,-0.2819 -1.54746,-0.66212 -2.3306,-1.13895 -0.71972,-0.43821 -1.4452,-0.96449 -2.17558,-1.56735 -0.60492,-0.49929 -1.21298,-1.04865 -1.82521,-1.66088 -0.0918,-0.0918 -0.17595,-0.18888 -0.26562,-0.28215 -0.53207,-0.553441 -1.02722,-1.132257 -1.48415,-1.737361 -0.412455,-0.546216 -0.800632,-1.109259 -1.151862,-1.697571 -0.805898,-1.370027 -1.349881,-2.669992 -1.631942,-3.898987 -0.292141,-1.239069 -0.367373,-2.473105 -0.226343,-3.702099 0.130964,-1.239073 0.49344,-2.468193 1.087789,-3.687114 0.342507,-0.685013 0.886491,-1.40015 1.631938,-2.145605 0.14966,-0.149662 0.30098,-0.289955 0.45269,-0.427364 3.3e-4,-0.466265 0.001,-0.932639 0,-1.398881 z"
           style="font-size:43.7658px;font-family:Garamond;-inkscape-font-specification:'Garamond, Normal';fill:#ffd817;fill-opacity:1;fill-rule:evenodd;stroke:#ffd817;stroke-width:0.924159;stroke-linecap:round;stroke-dasharray:none;stroke-opacity:1;paint-order:stroke markers fill"
           id="path67" />
        <path
           d="m 107.26012,78.534224 c -0.0289,0.752745 -0.044,1.506042 -0.0532,2.259294 1.8e-4,0.02618 3.4e-4,0.05237 5.2e-4,0.07855 0.70373,0.123645 1.40839,0.34564 2.11408,0.678512 0.13094,-0.09066 0.22634,-0.166413 0.28681,-0.22686 0.0705,-0.07052 0.16152,-0.191512 0.27233,-0.362768 -0.2619,-0.282085 -0.47392,-0.503377 -0.6351,-0.664559 -0.63702,-0.63702 -1.29927,-1.22338 -1.98541,-1.762167 z"
           style="font-size:43.7658px;font-family:Garamond;-inkscape-font-specification:'Garamond, Normal';fill:#ffd817;fill-opacity:1;fill-rule:evenodd;stroke:#ffd817;stroke-width:0.924159;stroke-linecap:round;stroke-dasharray:none;stroke-opacity:1;paint-order:stroke markers fill"
           id="path66" />
        <path
           d="m 97.582157,75.132882 c -0.01427,0.142465 -0.02119,0.256618 -0.02119,0.342098 0,0.07123 0.0069,0.185385 0.02119,0.342098 1.980265,0.356163 3.091453,0.562614 3.333643,0.6196 0.25644,0.05699 0.57011,0.171139 0.94052,0.342098 0.0997,0.256438 0.15678,0.455948 0.17104,0.598413 0.0114,0.197117 0.0154,0.685859 0.0227,1.043347 0.0102,0.495743 0.0172,1.101683 0.0196,1.905827 0.001,0.462985 0.001,0.989729 0,1.554944 -8.5e-4,0.405738 0.002,0.657793 0,1.116211 v 0.789616 0.534851 l -0.0212,5.000728 0.0212,3.82509 -0.13178,4.973856 c 1.31767,1.533195 2.82944,3.036931 4.57078,4.156851 1.72717,-0.016 3.67499,-0.0269 6.09679,-0.0269 l 3.87211,0.11369 c 0.82687,-0.62469 1.55107,-1.38555 2.11977,-2.22106 0.56793,-0.732193 0.98356,-1.568664 1.24644,-2.450492 -0.0626,0.08818 -0.14958,0.204191 -0.18604,0.262517 -0.32767,0.541372 -0.78376,1.068419 -1.36787,1.581299 -0.96877,0.797816 -1.65959,1.282186 -2.07274,1.453136 -0.41316,0.15674 -1.10449,0.24956 -2.07326,0.27802 l -3.69693,0.12816 h -1.45315 c -1.73808,-0.0142 -2.78524,-0.0286 -3.14141,-0.0429 -0.14246,-0.0997 -0.21342,-0.36325 -0.21342,-0.79065 l -0.0217,-1.324983 0.0641,-6.025989 -0.0424,-7.07347 V 84.79224 l -0.0134,-2.430342 -0.008,-1.522905 v -0.0708 -1.211296 c 0.0246,-0.602774 0.0339,-0.947162 0.0372,-1.19941 5.3e-4,-0.03988 0.006,-0.158531 0.006,-0.189652 0,-0.734391 0.098,-1.238742 0.29197,-1.517737 0.0581,-0.08363 0.1239,-0.149525 0.19947,-0.192237 0.19945,-0.113972 0.96175,-0.192388 2.28668,-0.235127 1.32493,-0.05699 2.06589,-0.09967 2.22261,-0.128158 0.0854,-0.299178 0.13507,-0.576586 0.14934,-0.833024 -0.47014,-0.04274 -1.28206,-0.06408 -2.43603,-0.06408 l -1.70997,0.128158 c -0.12822,0.01425 -0.6126,0.02119 -1.45314,0.02119 -0.34192,-0.02849 -0.54837,-0.04289 -0.6196,-0.04289 l -0.55552,0.0217 -1.88051,-0.04289 -3.248379,-0.10697 C 98.29507,75.14728 97.853372,75.13288 97.582687,75.13288 Z"
           style="font-size:43.7658px;font-family:Garamond;-inkscape-font-specification:'Garamond, Normal';fill:#ffd817;fill-opacity:1;fill-rule:evenodd;stroke:#ffd817;stroke-width:0.924159;stroke-linecap:round;stroke-dasharray:none;stroke-opacity:1;paint-order:stroke markers fill"
           id="path65" />
      </g>
      <g
         id="g52"
         transform="matrix(2.1641303,0,0,2.1641303,-67.862704,-114.39283)"
         style="mix-blend-mode:normal;fill:#ffdf3f;fill-opacity:1;stroke:#ffdf3d;stroke-width:0.924159;stroke-dasharray:none;stroke-opacity:1;filter:url(#filter56)">
        <path
           d="m 100.48069,81.673568 c -0.0848,0.08145 -0.17243,0.15589 -0.25632,0.239778 -1.531199,1.531207 -2.624072,2.805577 -3.278866,3.823023 -0.91671,1.460695 -1.536441,3.007049 -1.858802,4.638993 -0.31226,1.621871 -0.332456,3.283799 -0.06046,4.986259 0.271988,1.70246 0.720563,3.209003 1.345138,4.518587 0.0848,0.179342 0.177259,0.358282 0.274918,0.537432 0.250859,0.46019 0.543337,0.91981 0.879016,1.37873 0.168473,0.23033 0.350697,0.46039 0.540536,0.6904 0.351658,0.42606 0.736198,0.85195 1.161169,1.27692 0.09351,0.0935 0.189094,0.18182 0.283704,0.27234 1.281277,1.22581 2.661717,2.18019 4.143927,2.85564 1.58158,0.7152 3.10285,1.09785 4.56355,1.14825 1.4607,0.0504 2.88604,-0.15621 4.27623,-0.6196 1.39018,-0.48354 2.58438,-1.01226 3.58169,-1.58647 0.67114,-0.37876 1.47939,-1.00116 2.40037,-1.82263 0.47523,-0.42388 0.97133,-0.88451 1.51309,-1.42627 0.0381,-0.0381 0.0724,-0.0747 0.11007,-0.11265 0.19232,-0.19386 0.38104,-0.38667 0.56172,-0.57671 0.75081,-0.7897 1.39744,-1.54531 1.94717,-2.269113 0.63434,-0.835212 1.13977,-1.628102 1.50636,-2.375566 0.16119,-0.322353 0.30236,-0.584511 0.42323,-0.785998 -0.22231,-0.418782 -0.56455,-1.022725 -1.00975,-1.786454 -0.16812,-0.288395 -0.42074,-0.707832 -0.62064,-1.045415 -0.30219,-0.510336 -0.56361,-0.957518 -0.93844,-1.580265 -0.0605,-0.08056 -0.20653,-0.246816 -0.43822,-0.498677 -0.16114,0.04029 -0.26689,0.08553 -0.31729,0.135909 l -0.12092,0.241845 c 0.20956,0.572096 0.36405,1.138648 0.4749,1.701188 0.0863,0.437928 0.1482,0.873727 0.17467,1.305864 0.007,0.09659 0.007,0.187536 0.0114,0.282153 h 0.062 c -0.0158,0.09504 -0.0354,0.17615 -0.0517,0.269234 0.0161,0.757023 -0.0486,1.452046 -0.20308,2.07791 -0.0982,0.38758 -0.2417,0.801252 -0.42737,1.239201 -0.17627,0.415776 -0.39032,0.852958 -0.64544,1.314134 -0.20148,0.3828 -0.65495,1.0276 -1.36012,1.93425 l -0.36122,0.37723 -0.33383,0.3483 c -0.43954,0.43955 -0.9206,0.83437 -1.4428,1.18546 -0.85415,0.57425 -1.8186,1.0308 -2.89389,1.36839 -1.74276,0.53391 -3.64175,0.42817 -5.69681,-0.31729 -0.77052,-0.2819 -1.54746,-0.66212 -2.3306,-1.13895 -0.71972,-0.43821 -1.4452,-0.96449 -2.17558,-1.56735 -0.60492,-0.49929 -1.21298,-1.04865 -1.82521,-1.66088 -0.0918,-0.0918 -0.17595,-0.18888 -0.26562,-0.28215 -0.53207,-0.553441 -1.02722,-1.132257 -1.48415,-1.737361 -0.412455,-0.546216 -0.800632,-1.109259 -1.151862,-1.697571 -0.805898,-1.370027 -1.349881,-2.669992 -1.631942,-3.898987 -0.292141,-1.239069 -0.367373,-2.473105 -0.226343,-3.702099 0.130964,-1.239073 0.49344,-2.468193 1.087789,-3.687114 0.342507,-0.685013 0.886491,-1.40015 1.631938,-2.145605 0.14966,-0.149662 0.30098,-0.289955 0.45269,-0.427364 3.3e-4,-0.466265 0.001,-0.932639 0,-1.398881 z"
           style="font-size:43.7658px;font-family:Garamond;-inkscape-font-specification:'Garamond, Normal';fill:#ffdf3f;fill-opacity:1;fill-rule:evenodd;stroke:#ffdf3d;stroke-width:0.924159;stroke-linecap:round;stroke-dasharray:none;stroke-opacity:1;paint-order:stroke markers fill"
           id="path50" />
        <path
           d="m 107.26012,78.534224 c -0.0289,0.752745 -0.044,1.506042 -0.0532,2.259294 1.8e-4,0.02618 3.4e-4,0.05237 5.2e-4,0.07855 0.70373,0.123645 1.40839,0.34564 2.11408,0.678512 0.13094,-0.09066 0.22634,-0.166413 0.28681,-0.22686 0.0705,-0.07052 0.16152,-0.191512 0.27233,-0.362768 -0.2619,-0.282085 -0.47392,-0.503377 -0.6351,-0.664559 -0.63702,-0.63702 -1.29927,-1.22338 -1.98541,-1.762167 z"
           style="font-size:43.7658px;font-family:Garamond;-inkscape-font-specification:'Garamond, Normal';fill:#ffdf3f;fill-opacity:1;fill-rule:evenodd;stroke:#ffdf3d;stroke-width:0.924159;stroke-linecap:round;stroke-dasharray:none;stroke-opacity:1;paint-order:stroke markers fill"
           id="path51" />
        <path
           d="m 97.582157,75.132882 c -0.01427,0.142465 -0.02119,0.256618 -0.02119,0.342098 0,0.07123 0.0069,0.185385 0.02119,0.342098 1.980265,0.356163 3.091453,0.562614 3.333643,0.6196 0.25644,0.05699 0.57011,0.171139 0.94052,0.342098 0.0997,0.256438 0.15678,0.455948 0.17104,0.598413 0.0114,0.197117 0.0154,0.685859 0.0227,1.043347 0.0102,0.495743 0.0172,1.101683 0.0196,1.905827 0.001,0.462985 0.001,0.989729 0,1.554944 -8.5e-4,0.405738 0.002,0.657793 0,1.116211 v 0.789616 0.534851 l -0.0212,5.000728 0.0212,3.82509 -0.13178,4.973856 c 1.31767,1.533195 2.82944,3.036931 4.57078,4.156851 1.72717,-0.016 3.67499,-0.0269 6.09679,-0.0269 l 3.87211,0.11369 c 0.82687,-0.62469 1.55107,-1.38555 2.11977,-2.22106 0.56793,-0.732193 0.98356,-1.568664 1.24644,-2.450492 -0.0626,0.08818 -0.14958,0.204191 -0.18604,0.262517 -0.32767,0.541372 -0.78376,1.068419 -1.36787,1.581299 -0.96877,0.797816 -1.65959,1.282186 -2.07274,1.453136 -0.41316,0.15674 -1.10449,0.24956 -2.07326,0.27802 l -3.69693,0.12816 h -1.45315 c -1.73808,-0.0142 -2.78524,-0.0286 -3.14141,-0.0429 -0.14246,-0.0997 -0.21342,-0.36325 -0.21342,-0.79065 l -0.0217,-1.324983 0.0641,-6.025989 -0.0424,-7.07347 V 84.79224 l -0.0134,-2.430342 -0.008,-1.522905 v -0.0708 -1.211296 c 0.0246,-0.602774 0.0339,-0.947162 0.0372,-1.19941 5.3e-4,-0.03988 0.006,-0.158531 0.006,-0.189652 0,-0.734391 0.098,-1.238742 0.29197,-1.517737 0.0581,-0.08363 0.1239,-0.149525 0.19947,-0.192237 0.19945,-0.113972 0.96175,-0.192388 2.28668,-0.235127 1.32493,-0.05699 2.06589,-0.09967 2.22261,-0.128158 0.0854,-0.299178 0.13507,-0.576586 0.14934,-0.833024 -0.47014,-0.04274 -1.28206,-0.06408 -2.43603,-0.06408 l -1.70997,0.128158 c -0.12822,0.01425 -0.6126,0.02119 -1.45314,0.02119 -0.34192,-0.02849 -0.54837,-0.04289 -0.6196,-0.04289 l -0.55552,0.0217 -1.88051,-0.04289 -3.248379,-0.10697 C 98.29507,75.14728 97.853372,75.13288 97.582687,75.13288 Z"
           style="font-size:43.7658px;font-family:Garamond;-inkscape-font-specification:'Garamond, Normal';fill:#ffdf3f;fill-opacity:1;fill-rule:evenodd;stroke:#ffdf3d;stroke-width:0.924159;stroke-linecap:round;stroke-dasharray:none;stroke-opacity:1;paint-order:stroke markers fill"
           id="path52" />
      </g>
      <g
         id="g49"
         transform="matrix(2.1641303,0,0,2.1641303,-67.862704,-114.39283)"
         style="fill:#ffe970;fill-opacity:1;stroke:#ffe970;stroke-width:0.924159;stroke-dasharray:none;stroke-opacity:1;filter:url(#filter57)">
        <path
           d="m 100.48069,81.673568 c -0.0848,0.08145 -0.17243,0.15589 -0.25632,0.239778 -1.531199,1.531207 -2.624072,2.805577 -3.278866,3.823023 -0.91671,1.460695 -1.536441,3.007049 -1.858802,4.638993 -0.31226,1.621871 -0.332456,3.283799 -0.06046,4.986259 0.271988,1.70246 0.720563,3.209003 1.345138,4.518587 0.0848,0.179342 0.177259,0.358282 0.274918,0.537432 0.250859,0.46019 0.543337,0.91981 0.879016,1.37873 0.168473,0.23033 0.350697,0.46039 0.540536,0.6904 0.351658,0.42606 0.736198,0.85195 1.161169,1.27692 0.09351,0.0935 0.189094,0.18182 0.283704,0.27234 1.281277,1.22581 2.661717,2.18019 4.143927,2.85564 1.58158,0.7152 3.10285,1.09785 4.56355,1.14825 1.4607,0.0504 2.88604,-0.15621 4.27623,-0.6196 1.39018,-0.48354 2.58438,-1.01226 3.58169,-1.58647 0.67114,-0.37876 1.47939,-1.00116 2.40037,-1.82263 0.47523,-0.42388 0.97133,-0.88451 1.51309,-1.42627 0.0381,-0.0381 0.0724,-0.0747 0.11007,-0.11265 0.19232,-0.19386 0.38104,-0.38667 0.56172,-0.57671 0.75081,-0.7897 1.39744,-1.54531 1.94717,-2.269113 0.63434,-0.835212 1.13977,-1.628102 1.50636,-2.375566 0.16119,-0.322353 0.30236,-0.584511 0.42323,-0.785998 -0.22231,-0.418782 -0.56455,-1.022725 -1.00975,-1.786454 -0.16812,-0.288395 -0.42074,-0.707832 -0.62064,-1.045415 -0.30219,-0.510336 -0.56361,-0.957518 -0.93844,-1.580265 -0.0605,-0.08056 -0.20653,-0.246816 -0.43822,-0.498677 -0.16114,0.04029 -0.26689,0.08553 -0.31729,0.135909 l -0.12092,0.241845 c 0.20956,0.572096 0.36405,1.138648 0.4749,1.701188 0.0863,0.437928 0.1482,0.873727 0.17467,1.305864 0.007,0.09659 0.007,0.187536 0.0114,0.282153 h 0.062 c -0.0158,0.09504 -0.0354,0.17615 -0.0517,0.269234 0.0161,0.757023 -0.0486,1.452046 -0.20308,2.07791 -0.0982,0.38758 -0.2417,0.801252 -0.42737,1.239201 -0.17627,0.415776 -0.39032,0.852958 -0.64544,1.314134 -0.20148,0.3828 -0.65495,1.0276 -1.36012,1.93425 l -0.36122,0.37723 -0.33383,0.3483 c -0.43954,0.43955 -0.9206,0.83437 -1.4428,1.18546 -0.85415,0.57425 -1.8186,1.0308 -2.89389,1.36839 -1.74276,0.53391 -3.64175,0.42817 -5.69681,-0.31729 -0.77052,-0.2819 -1.54746,-0.66212 -2.3306,-1.13895 -0.71972,-0.43821 -1.4452,-0.96449 -2.17558,-1.56735 -0.60492,-0.49929 -1.21298,-1.04865 -1.82521,-1.66088 -0.0918,-0.0918 -0.17595,-0.18888 -0.26562,-0.28215 -0.53207,-0.553441 -1.02722,-1.132257 -1.48415,-1.737361 -0.412455,-0.546216 -0.800632,-1.109259 -1.151862,-1.697571 -0.805898,-1.370027 -1.349881,-2.669992 -1.631942,-3.898987 -0.292141,-1.239069 -0.367373,-2.473105 -0.226343,-3.702099 0.130964,-1.239073 0.49344,-2.468193 1.087789,-3.687114 0.342507,-0.685013 0.886491,-1.40015 1.631938,-2.145605 0.14966,-0.149662 0.30098,-0.289955 0.45269,-0.427364 3.3e-4,-0.466265 0.001,-0.932639 0,-1.398881 z"
           style="font-size:43.7658px;font-family:Garamond;-inkscape-font-specification:'Garamond, Normal';fill:#ffe970;fill-opacity:1;fill-rule:evenodd;stroke:#ffe970;stroke-width:0.924159;stroke-linecap:round;stroke-dasharray:none;stroke-opacity:1;paint-order:stroke markers fill"
           id="path47" />
        <path
           d="m 107.26012,78.534224 c -0.0289,0.752745 -0.044,1.506042 -0.0532,2.259294 1.8e-4,0.02618 3.4e-4,0.05237 5.2e-4,0.07855 0.70373,0.123645 1.40839,0.34564 2.11408,0.678512 0.13094,-0.09066 0.22634,-0.166413 0.28681,-0.22686 0.0705,-0.07052 0.16152,-0.191512 0.27233,-0.362768 -0.2619,-0.282085 -0.47392,-0.503377 -0.6351,-0.664559 -0.63702,-0.63702 -1.29927,-1.22338 -1.98541,-1.762167 z"
           style="font-size:43.7658px;font-family:Garamond;-inkscape-font-specification:'Garamond, Normal';fill:#ffe970;fill-opacity:1;fill-rule:evenodd;stroke:#ffe970;stroke-width:0.924159;stroke-linecap:round;stroke-dasharray:none;stroke-opacity:1;paint-order:stroke markers fill"
           id="path48" />
        <path
           d="m 97.582157,75.132882 c -0.01427,0.142465 -0.02119,0.256618 -0.02119,0.342098 0,0.07123 0.0069,0.185385 0.02119,0.342098 1.980265,0.356163 3.091453,0.562614 3.333643,0.6196 0.25644,0.05699 0.57011,0.171139 0.94052,0.342098 0.0997,0.256438 0.15678,0.455948 0.17104,0.598413 0.0114,0.197117 0.0154,0.685859 0.0227,1.043347 0.0102,0.495743 0.0172,1.101683 0.0196,1.905827 0.001,0.462985 0.001,0.989729 0,1.554944 -8.5e-4,0.405738 0.002,0.657793 0,1.116211 v 0.789616 0.534851 l -0.0212,5.000728 0.0212,3.82509 -0.13178,4.973856 c 1.31767,1.533195 2.82944,3.036931 4.57078,4.156851 1.72717,-0.016 3.67499,-0.0269 6.09679,-0.0269 l 3.87211,0.11369 c 0.82687,-0.62469 1.55107,-1.38555 2.11977,-2.22106 0.56793,-0.732193 0.98356,-1.568664 1.24644,-2.450492 -0.0626,0.08818 -0.14958,0.204191 -0.18604,0.262517 -0.32767,0.541372 -0.78376,1.068419 -1.36787,1.581299 -0.96877,0.797816 -1.65959,1.282186 -2.07274,1.453136 -0.41316,0.15674 -1.10449,0.24956 -2.07326,0.27802 l -3.69693,0.12816 h -1.45315 c -1.73808,-0.0142 -2.78524,-0.0286 -3.14141,-0.0429 -0.14246,-0.0997 -0.21342,-0.36325 -0.21342,-0.79065 l -0.0217,-1.324983 0.0641,-6.025989 -0.0424,-7.07347 V 84.79224 l -0.0134,-2.430342 -0.008,-1.522905 v -0.0708 -1.211296 c 0.0246,-0.602774 0.0339,-0.947162 0.0372,-1.19941 5.3e-4,-0.03988 0.006,-0.158531 0.006,-0.189652 0,-0.734391 0.098,-1.238742 0.29197,-1.517737 0.0581,-0.08363 0.1239,-0.149525 0.19947,-0.192237 0.19945,-0.113972 0.96175,-0.192388 2.28668,-0.235127 1.32493,-0.05699 2.06589,-0.09967 2.22261,-0.128158 0.0854,-0.299178 0.13507,-0.576586 0.14934,-0.833024 -0.47014,-0.04274 -1.28206,-0.06408 -2.43603,-0.06408 l -1.70997,0.128158 c -0.12822,0.01425 -0.6126,0.02119 -1.45314,0.02119 -0.34192,-0.02849 -0.54837,-0.04289 -0.6196,-0.04289 l -0.55552,0.0217 -1.88051,-0.04289 -3.248379,-0.10697 C 98.29507,75.14728 97.853372,75.13288 97.582687,75.13288 Z"
           style="font-size:43.7658px;font-family:Garamond;-inkscape-font-specification:'Garamond, Normal';fill:#ffe970;fill-opacity:1;fill-rule:evenodd;stroke:#ffe970;stroke-width:0.924159;stroke-linecap:round;stroke-dasharray:none;stroke-opacity:1;paint-order:stroke markers fill"
           id="path49" />
      </g>
      <g
         id="g68"
         transform="matrix(2.2034524,0,0,2.2033351,-67.736055,-115.92758)"
         style="display:inline;opacity:0.2;fill:#000000;fill-opacity:1;stroke:#000000;stroke-width:0.907691;stroke-dasharray:none;stroke-opacity:1">
        <path
           d="m 100.48069,81.673568 c -0.0848,0.08145 -0.17243,0.15589 -0.25632,0.239778 -1.531199,1.531207 -2.624072,2.805577 -3.278866,3.823023 -0.91671,1.460695 -1.536441,3.007049 -1.858802,4.638993 -0.31226,1.621871 -0.332456,3.283799 -0.06046,4.986259 0.271988,1.70246 0.720563,3.209003 1.345138,4.518587 0.0848,0.179342 0.177259,0.358282 0.274918,0.537432 0.250859,0.46019 0.543337,0.91981 0.879016,1.37873 0.168473,0.23033 0.350697,0.46039 0.540536,0.6904 0.351658,0.42606 0.736198,0.85195 1.161169,1.27692 0.09351,0.0935 0.189094,0.18182 0.283704,0.27234 1.281277,1.22581 2.661717,2.18019 4.143927,2.85564 1.58158,0.7152 3.10285,1.09785 4.56355,1.14825 1.4607,0.0504 2.88604,-0.15621 4.27623,-0.6196 1.39018,-0.48354 2.58438,-1.01226 3.58169,-1.58647 0.67114,-0.37876 1.47939,-1.00116 2.40037,-1.82263 0.47523,-0.42388 0.97133,-0.88451 1.51309,-1.42627 0.0381,-0.0381 0.0724,-0.0747 0.11007,-0.11265 0.19232,-0.19386 0.38104,-0.38667 0.56172,-0.57671 0.75081,-0.7897 1.39744,-1.54531 1.94717,-2.269113 0.63434,-0.835212 1.13977,-1.628102 1.50636,-2.375566 0.16119,-0.322353 0.30236,-0.584511 0.42323,-0.785998 -0.22231,-0.418782 -0.56455,-1.022725 -1.00975,-1.786454 -0.16812,-0.288395 -0.42074,-0.707832 -0.62064,-1.045415 -0.30219,-0.510336 -0.56361,-0.957518 -0.93844,-1.580265 -0.0605,-0.08056 -0.20653,-0.246816 -0.43822,-0.498677 -0.16114,0.04029 -0.26689,0.08553 -0.31729,0.135909 l -0.12092,0.241845 c 0.20956,0.572096 0.36405,1.138648 0.4749,1.701188 0.0863,0.437928 0.1482,0.873727 0.17467,1.305864 0.007,0.09659 0.007,0.187536 0.0114,0.282153 h 0.062 c -0.0158,0.09504 -0.0354,0.17615 -0.0517,0.269234 0.0161,0.757023 -0.0486,1.452046 -0.20308,2.07791 -0.0982,0.38758 -0.2417,0.801252 -0.42737,1.239201 -0.17627,0.415776 -0.39032,0.852958 -0.64544,1.314134 -0.20148,0.3828 -0.65495,1.0276 -1.36012,1.93425 l -0.36122,0.37723 -0.33383,0.3483 c -0.43954,0.43955 -0.9206,0.83437 -1.4428,1.18546 -0.85415,0.57425 -1.8186,1.0308 -2.89389,1.36839 -1.74276,0.53391 -3.64175,0.42817 -5.69681,-0.31729 -0.77052,-0.2819 -1.54746,-0.66212 -2.3306,-1.13895 -0.71972,-0.43821 -1.4452,-0.96449 -2.17558,-1.56735 -0.60492,-0.49929 -1.21298,-1.04865 -1.82521,-1.66088 -0.0918,-0.0918 -0.17595,-0.18888 -0.26562,-0.28215 -0.53207,-0.553441 -1.02722,-1.132257 -1.48415,-1.737361 -0.412455,-0.546216 -0.800632,-1.109259 -1.151862,-1.697571 -0.805898,-1.370027 -1.349881,-2.669992 -1.631942,-3.898987 -0.292141,-1.239069 -0.367373,-2.473105 -0.226343,-3.702099 0.130964,-1.239073 0.49344,-2.468193 1.087789,-3.687114 0.342507,-0.685013 0.886491,-1.40015 1.631938,-2.145605 0.14966,-0.149662 0.30098,-0.289955 0.45269,-0.427364 3.3e-4,-0.466265 0.001,-0.932639 0,-1.398881 z"
           style="font-size:43.7658px;font-family:Garamond;-inkscape-font-specification:'Garamond, Normal';fill:#000000;fill-opacity:1;fill-rule:evenodd;stroke:#000000;stroke-width:0.907691;stroke-linecap:round;stroke-dasharray:none;stroke-opacity:1;paint-order:stroke markers fill"
           id="path63" />
        <path
           d="m 107.26012,78.534224 c -0.0289,0.752745 -0.044,1.506042 -0.0532,2.259294 1.8e-4,0.02618 3.4e-4,0.05237 5.2e-4,0.07855 0.70373,0.123645 1.40839,0.34564 2.11408,0.678512 0.13094,-0.09066 0.22634,-0.166413 0.28681,-0.22686 0.0705,-0.07052 0.16152,-0.191512 0.27233,-0.362768 -0.2619,-0.282085 -0.47392,-0.503377 -0.6351,-0.664559 -0.63702,-0.63702 -1.29927,-1.22338 -1.98541,-1.762167 z"
           style="font-size:43.7658px;font-family:Garamond;-inkscape-font-specification:'Garamond, Normal';fill:#000000;fill-opacity:1;fill-rule:evenodd;stroke:#000000;stroke-width:0.907691;stroke-linecap:round;stroke-dasharray:none;stroke-opacity:1;paint-order:stroke markers fill"
           id="path64" />
        <path
           d="m 97.582157,75.132882 c -0.01427,0.142465 -0.02119,0.256618 -0.02119,0.342098 0,0.07123 0.0069,0.185385 0.02119,0.342098 1.980265,0.356163 3.091453,0.562614 3.333643,0.6196 0.25644,0.05699 0.57011,0.171139 0.94052,0.342098 0.0997,0.256438 0.15678,0.455948 0.17104,0.598413 0.0114,0.197117 0.0154,0.685859 0.0227,1.043347 0.0102,0.495743 0.0172,1.101683 0.0196,1.905827 0.001,0.462985 0.001,0.989729 0,1.554944 -8.5e-4,0.405738 0.002,0.657793 0,1.116211 v 0.789616 0.534851 l -0.0212,5.000728 0.0212,3.82509 -0.13178,4.973856 c 1.31767,1.533195 2.82944,3.036931 4.57078,4.156851 1.72717,-0.016 3.67499,-0.0269 6.09679,-0.0269 l 3.87211,0.11369 c 0.82687,-0.62469 1.55107,-1.38555 2.11977,-2.22106 0.56793,-0.732193 0.98356,-1.568664 1.24644,-2.450492 -0.0626,0.08818 -0.14958,0.204191 -0.18604,0.262517 -0.32767,0.541372 -0.78376,1.068419 -1.36787,1.581299 -0.96877,0.797816 -1.65959,1.282186 -2.07274,1.453136 -0.41316,0.15674 -1.10449,0.24956 -2.07326,0.27802 l -3.69693,0.12816 h -1.45315 c -1.73808,-0.0142 -2.78524,-0.0286 -3.14141,-0.0429 -0.14246,-0.0997 -0.21342,-0.36325 -0.21342,-0.79065 l -0.0217,-1.324983 0.0641,-6.025989 -0.0424,-7.07347 V 84.79224 l -0.0134,-2.430342 -0.008,-1.522905 v -0.0708 -1.211296 c 0.0246,-0.602774 0.0339,-0.947162 0.0372,-1.19941 5.3e-4,-0.03988 0.006,-0.158531 0.006,-0.189652 0,-0.734391 0.098,-1.238742 0.29197,-1.517737 0.0581,-0.08363 0.1239,-0.149525 0.19947,-0.192237 0.19945,-0.113972 0.96175,-0.192388 2.28668,-0.235127 1.32493,-0.05699 2.06589,-0.09967 2.22261,-0.128158 0.0854,-0.299178 0.13507,-0.576586 0.14934,-0.833024 -0.47014,-0.04274 -1.28206,-0.06408 -2.43603,-0.06408 l -1.70997,0.128158 c -0.12822,0.01425 -0.6126,0.02119 -1.45314,0.02119 -0.34192,-0.02849 -0.54837,-0.04289 -0.6196,-0.04289 l -0.55552,0.0217 -1.88051,-0.04289 -3.248379,-0.10697 C 98.29507,75.14728 97.853372,75.13288 97.582687,75.13288 Z"
           style="font-size:43.7658px;font-family:Garamond;-inkscape-font-specification:'Garamond, Normal';fill:#000000;fill-opacity:1;fill-rule:evenodd;stroke:#000000;stroke-width:0.907691;stroke-linecap:round;stroke-dasharray:none;stroke-opacity:1;paint-order:stroke markers fill"
           id="path68" />
      </g>
      <g
         id="g55"
         transform="matrix(2.1641303,0,0,2.1641303,-67.862704,-114.39283)"
         style="display:inline;fill:#ffffff;fill-opacity:1;stroke:#ffffff;stroke-width:0.924159;stroke-dasharray:none;stroke-opacity:1">
        <path
           d="m 100.48069,81.673568 c -0.0848,0.08145 -0.17243,0.15589 -0.25632,0.239778 -1.531199,1.531207 -2.624072,2.805577 -3.278866,3.823023 -0.91671,1.460695 -1.536441,3.007049 -1.858802,4.638993 -0.31226,1.621871 -0.332456,3.283799 -0.06046,4.986259 0.271988,1.70246 0.720563,3.209003 1.345138,4.518587 0.0848,0.179342 0.177259,0.358282 0.274918,0.537432 0.250859,0.46019 0.543337,0.91981 0.879016,1.37873 0.168473,0.23033 0.350697,0.46039 0.540536,0.6904 0.351658,0.42606 0.736198,0.85195 1.161169,1.27692 0.09351,0.0935 0.189094,0.18182 0.283704,0.27234 1.281277,1.22581 2.661717,2.18019 4.143927,2.85564 1.58158,0.7152 3.10285,1.09785 4.56355,1.14825 1.4607,0.0504 2.88604,-0.15621 4.27623,-0.6196 1.39018,-0.48354 2.58438,-1.01226 3.58169,-1.58647 0.67114,-0.37876 1.47939,-1.00116 2.40037,-1.82263 0.47523,-0.42388 0.97133,-0.88451 1.51309,-1.42627 0.0381,-0.0381 0.0724,-0.0747 0.11007,-0.11265 0.19232,-0.19386 0.38104,-0.38667 0.56172,-0.57671 0.75081,-0.7897 1.39744,-1.54531 1.94717,-2.269113 0.63434,-0.835212 1.13977,-1.628102 1.50636,-2.375566 0.16119,-0.322353 0.30236,-0.584511 0.42323,-0.785998 -0.22231,-0.418782 -0.56455,-1.022725 -1.00975,-1.786454 -0.16812,-0.288395 -0.42074,-0.707832 -0.62064,-1.045415 -0.30219,-0.510336 -0.56361,-0.957518 -0.93844,-1.580265 -0.0605,-0.08056 -0.20653,-0.246816 -0.43822,-0.498677 -0.16114,0.04029 -0.26689,0.08553 -0.31729,0.135909 l -0.12092,0.241845 c 0.20956,0.572096 0.36405,1.138648 0.4749,1.701188 0.0863,0.437928 0.1482,0.873727 0.17467,1.305864 0.007,0.09659 0.007,0.187536 0.0114,0.282153 h 0.062 c -0.0158,0.09504 -0.0354,0.17615 -0.0517,0.269234 0.0161,0.757023 -0.0486,1.452046 -0.20308,2.07791 -0.0982,0.38758 -0.2417,0.801252 -0.42737,1.239201 -0.17627,0.415776 -0.39032,0.852958 -0.64544,1.314134 -0.20148,0.3828 -0.65495,1.0276 -1.36012,1.93425 l -0.36122,0.37723 -0.33383,0.3483 c -0.43954,0.43955 -0.9206,0.83437 -1.4428,1.18546 -0.85415,0.57425 -1.8186,1.0308 -2.89389,1.36839 -1.74276,0.53391 -3.64175,0.42817 -5.69681,-0.31729 -0.77052,-0.2819 -1.54746,-0.66212 -2.3306,-1.13895 -0.71972,-0.43821 -1.4452,-0.96449 -2.17558,-1.56735 -0.60492,-0.49929 -1.21298,-1.04865 -1.82521,-1.66088 -0.0918,-0.0918 -0.17595,-0.18888 -0.26562,-0.28215 -0.53207,-0.553441 -1.02722,-1.132257 -1.48415,-1.737361 -0.412455,-0.546216 -0.800632,-1.109259 -1.151862,-1.697571 -0.805898,-1.370027 -1.349881,-2.669992 -1.631942,-3.898987 -0.292141,-1.239069 -0.367373,-2.473105 -0.226343,-3.702099 0.130964,-1.239073 0.49344,-2.468193 1.087789,-3.687114 0.342507,-0.685013 0.886491,-1.40015 1.631938,-2.145605 0.14966,-0.149662 0.30098,-0.289955 0.45269,-0.427364 3.3e-4,-0.466265 0.001,-0.932639 0,-1.398881 z"
           style="font-size:43.7658px;font-family:Garamond;-inkscape-font-specification:'Garamond, Normal';fill:#ffffff;fill-opacity:1;fill-rule:evenodd;stroke:#ffffff;stroke-width:0.924159;stroke-linecap:round;stroke-dasharray:none;stroke-opacity:1;paint-order:stroke markers fill"
           id="path53" />
        <path
           d="m 107.26012,78.534224 c -0.0289,0.752745 -0.044,1.506042 -0.0532,2.259294 1.8e-4,0.02618 3.4e-4,0.05237 5.2e-4,0.07855 0.70373,0.123645 1.40839,0.34564 2.11408,0.678512 0.13094,-0.09066 0.22634,-0.166413 0.28681,-0.22686 0.0705,-0.07052 0.16152,-0.191512 0.27233,-0.362768 -0.2619,-0.282085 -0.47392,-0.503377 -0.6351,-0.664559 -0.63702,-0.63702 -1.29927,-1.22338 -1.98541,-1.762167 z"
           style="font-size:43.7658px;font-family:Garamond;-inkscape-font-specification:'Garamond, Normal';fill:#ffffff;fill-opacity:1;fill-rule:evenodd;stroke:#ffffff;stroke-width:0.924159;stroke-linecap:round;stroke-dasharray:none;stroke-opacity:1;paint-order:stroke markers fill"
           id="path54" />
        <path
           d="m 97.582157,75.132882 c -0.01427,0.142465 -0.02119,0.256618 -0.02119,0.342098 0,0.07123 0.0069,0.185385 0.02119,0.342098 1.980265,0.356163 3.091453,0.562614 3.333643,0.6196 0.25644,0.05699 0.57011,0.171139 0.94052,0.342098 0.0997,0.256438 0.15678,0.455948 0.17104,0.598413 0.0114,0.197117 0.0154,0.685859 0.0227,1.043347 0.0102,0.495743 0.0172,1.101683 0.0196,1.905827 0.001,0.462985 0.001,0.989729 0,1.554944 -8.5e-4,0.405738 0.002,0.657793 0,1.116211 v 0.789616 0.534851 l -0.0212,5.000728 0.0212,3.82509 -0.13178,4.973856 c 1.31767,1.533195 2.82944,3.036931 4.57078,4.156851 1.72717,-0.016 3.67499,-0.0269 6.09679,-0.0269 l 3.87211,0.11369 c 0.82687,-0.62469 1.55107,-1.38555 2.11977,-2.22106 0.56793,-0.732193 0.98356,-1.568664 1.24644,-2.450492 -0.0626,0.08818 -0.14958,0.204191 -0.18604,0.262517 -0.32767,0.541372 -0.78376,1.068419 -1.36787,1.581299 -0.96877,0.797816 -1.65959,1.282186 -2.07274,1.453136 -0.41316,0.15674 -1.10449,0.24956 -2.07326,0.27802 l -3.69693,0.12816 h -1.45315 c -1.73808,-0.0142 -2.78524,-0.0286 -3.14141,-0.0429 -0.14246,-0.0997 -0.21342,-0.36325 -0.21342,-0.79065 l -0.0217,-1.324983 0.0641,-6.025989 -0.0424,-7.07347 V 84.79224 l -0.0134,-2.430342 -0.008,-1.522905 v -0.0708 -1.211296 c 0.0246,-0.602774 0.0339,-0.947162 0.0372,-1.19941 5.3e-4,-0.03988 0.006,-0.158531 0.006,-0.189652 0,-0.734391 0.098,-1.238742 0.29197,-1.517737 0.0581,-0.08363 0.1239,-0.149525 0.19947,-0.192237 0.19945,-0.113972 0.96175,-0.192388 2.28668,-0.235127 1.32493,-0.05699 2.06589,-0.09967 2.22261,-0.128158 0.0854,-0.299178 0.13507,-0.576586 0.14934,-0.833024 -0.47014,-0.04274 -1.28206,-0.06408 -2.43603,-0.06408 l -1.70997,0.128158 c -0.12822,0.01425 -0.6126,0.02119 -1.45314,0.02119 -0.34192,-0.02849 -0.54837,-0.04289 -0.6196,-0.04289 l -0.55552,0.0217 -1.88051,-0.04289 -3.248379,-0.10697 C 98.29507,75.14728 97.853372,75.13288 97.582687,75.13288 Z"
           style="font-size:43.7658px;font-family:Garamond;-inkscape-font-specification:'Garamond, Normal';fill:#ffffff;fill-opacity:1;fill-rule:evenodd;stroke:#ffffff;stroke-width:0.924159;stroke-linecap:round;stroke-dasharray:none;stroke-opacity:1;paint-order:stroke markers fill"
           id="path55" />
      </g>
      <path
         d="m 91.093537,168.48815 c -1.98239,0 -2.89429,1.14978 -2.89429,2.37887 0,1.14978 0.9119,2.33922 3.09253,2.33922 2.93394,0 4.59915,-2.22028 4.59915,-2.22028 0,0 4.916323,2.22028 9.872303,2.22028 3.09253,0 4.48019,-1.46697 4.48019,-3.48901 0,-1.22908 -0.43612,-1.70486 -0.43612,-1.70486 0,0 -1.42731,1.03085 -5.86787,1.03085 -3.05288,0 -5.352453,-0.11895 -7.295193,-0.23789 L 100.33148,147.792 c 0.55507,-3.05288 -0.0396,-4.32161 -2.973583,-4.32161 h -2.77535 c -6.3833,0 -9.99125,2.85464 -9.99125,6.77977 0,2.37887 1.58592,3.96478 4.16302,3.96478 2.02204,0 3.01324,-1.26873 3.01324,-2.22028 0,-0.23788 -0.0396,-0.35682 -0.0396,-0.35682 0,0 -0.23789,0.11894 -0.67402,0.11894 -0.99119,0 -1.58591,-0.71366 -1.58591,-1.8238 0,-2.25992 1.78415,-4.28196 5.3921,-4.28196 h 0.39648 c 0,0.51542 -0.0397,1.11014 -0.19824,1.94274 l -3.6476,20.89439 z m 29.656563,-1.38768 c -1.03084,1.58592 -2.06168,2.65641 -2.93393,2.65641 -1.14979,0 -1.70486,-0.9912 -1.30838,-3.29077 l 1.58591,-9.15864 c 0.47577,-2.77535 0.11894,-3.92513 -2.93394,-3.92513 -1.46698,0 -2.06169,0.35683 -2.06169,0.35683 0,0 0.39647,0.9119 -0.0397,3.40971 l -1.14979,6.58153 c -0.35683,2.06169 -0.47577,3.40971 -0.47577,4.87668 0,2.7357 1.66521,4.59915 4.32162,4.59915 2.18063,0 3.92513,-1.11014 5.59034,-3.37007 0.63436,-0.8326 1.22908,-1.8238 1.78415,-2.93393 -0.0397,0.59471 -0.0397,1.11013 -0.0397,1.62556 0,3.05288 1.94274,4.67844 4.00443,4.67844 2.57711,0 4.44055,-1.8238 4.59915,-3.40971 0.0793,-0.71367 -0.19824,-1.14979 -0.75331,-1.14979 0,0 -0.35683,1.11014 -1.50662,1.11014 -1.03084,0 -1.66521,-0.83261 -1.18943,-3.68725 l 1.50661,-8.76216 c 0.47578,-2.77535 0.11895,-3.92513 -2.93393,-3.92513 -1.46697,0 -2.06169,0.35683 -2.06169,0.35683 0,0 0.35683,0.8326 0,3.01323 -0.63436,3.72689 -2.29957,7.77097 -4.00443,10.34807 z m 15.93843,-13.71813 c -1.94275,0 -3.13218,1.26873 -3.13218,2.49781 0,0.19824 0.0396,0.35683 0.0793,0.51542 0,0 0.31718,-0.19824 0.7533,-0.19824 0.75331,0 1.14979,0.39648 1.58592,1.86345 l 1.90309,5.98681 -2.89429,2.10134 c -2.89429,2.10133 -3.6476,3.489 -3.6476,4.95597 0,1.26873 0.71366,2.10134 2.29958,2.10134 0.95154,0 1.50661,-0.35683 1.50661,-0.35683 -0.11894,-0.39648 -0.15859,-0.79296 -0.15859,-1.14979 0,-1.98239 0.79296,-3.80619 2.69605,-5.15421 l 0.79296,-0.55507 0.51542,1.54626 c 1.26873,3.96478 3.29077,5.66964 6.54189,5.66964 3.60795,0 6.89871,-3.09253 7.41413,-5.86788 0.11895,-0.71366 -0.23788,-1.03084 -0.7533,-1.03084 -1.30838,2.41851 -2.77535,3.44936 -4.59915,3.44936 -1.78415,0 -2.93394,-1.11014 -3.76654,-3.5683 l -1.11014,-3.25112 3.44936,-2.49782 c 2.89429,-2.10133 3.6476,-3.489 3.6476,-4.95597 0,-1.26873 -0.71366,-2.10133 -2.29957,-2.10133 -0.95155,0 -1.50662,0.35683 -1.50662,0.35683 0.11894,0.39647 0.15859,0.79295 0.15859,1.14978 0,1.98239 -0.79296,3.80619 -2.69605,5.15422 l -1.38767,0.99119 -1.54627,-4.71809 c -0.75331,-2.29957 -1.7445,-2.93393 -3.84583,-2.93393 z m 23.66971,19.8239 c 6.06612,0 9.8723,-4.12338 10.22913,-5.86788 0.1586,-0.71366 -0.11894,-1.03084 -0.63436,-1.03084 -1.07049,1.66521 -3.48901,3.76654 -7.73132,3.76654 -3.37006,0 -5.43175,-2.29957 -5.66964,-5.27316 6.97802,-1.30837 11.14104,-3.68724 11.14104,-7.29519 0,-2.02204 -1.62556,-4.12337 -5.66964,-4.12337 -5.27316,0 -10.62561,4.24231 -10.62561,11.25997 0,5.35245 3.76654,8.56393 8.9604,8.56393 z m 1.70486,-17.84151 c 0.8326,0 1.38767,0.55507 1.38767,1.38767 0,2.61675 -2.02204,5.03527 -6.85907,6.18506 0.43613,-4.95598 3.21147,-7.57273 5.4714,-7.57273 z m 24.4627,14.55074 c -5.31281,0 -8.56393,-3.37006 -8.56393,-9.47583 0,-8.16744 4.51985,-14.78862 9.07935,-14.78862 1.94274,0 3.25112,1.22908 3.25112,3.33041 0,4.44055 -2.97359,5.62999 -2.97359,5.62999 0,0 0.63437,1.34802 2.57711,1.34802 2.45816,0 4.83703,-2.02203 4.83703,-5.74893 0,-3.52865 -2.61675,-6.74012 -7.57273,-6.74012 -8.20709,0 -14.70933,6.97801 -14.70933,17.40538 0,7.69167 5.19386,12.33047 11.97363,12.33047 6.97802,0 11.89434,-3.96478 12.37012,-6.02647 0.0793,-0.51542 -0.0396,-0.87225 -0.67401,-0.87225 -1.8238,1.98239 -5.27316,3.60795 -9.59477,3.60795 z m 15.6609,-12.608 c 0.47577,-2.6564 0.11894,-3.92513 -2.93394,-3.92513 -1.46697,0 -2.06168,0.35683 -2.06168,0.35683 0,0 0.39648,0.9119 -0.0396,3.40971 l -2.10133,12.13222 c -0.47578,2.77535 -0.11895,3.92514 2.93393,3.92514 1.46697,0 2.06169,-0.35683 2.06169,-0.35683 0,0 -0.39648,-0.83261 0,-3.17183 0.95155,-5.59034 2.25992,-8.0485 3.76654,-10.14983 1.30838,-1.8238 2.18063,-2.33923 2.81499,-2.33923 0.59472,0 0.83261,0.31719 0.83261,0.87226 0,1.07049 -0.51542,1.98239 -0.51542,1.98239 0,0 0.7533,0.23788 1.78415,0.23788 1.94274,0 3.29076,-1.58591 3.29076,-3.80619 0,-2.02203 -1.22908,-3.09252 -3.17182,-3.09252 -1.78415,0 -4.44055,1.38767 -6.97801,5.66963 z m 28.94293,-0.67401 c 0.39648,-2.14099 0.9119,-2.85465 0.9119,-2.85465 0,0 -0.63437,-0.39647 -1.98239,-0.39647 -1.94274,0 -2.93394,0.51542 -3.5683,1.94274 -0.9119,-1.14979 -2.29958,-1.94274 -4.28197,-1.94274 -4.63879,0 -9.793,4.16302 -9.793,13.00447 0,4.6388 2.5771,6.81943 5.82822,6.81943 2.25993,0 4.44056,-1.54627 6.06612,-4.48021 0.19824,2.85465 2.02204,4.48021 4.63879,4.48021 3.84584,0 6.70048,-3.76654 7.09696,-5.86788 0.11894,-0.71366 -0.23789,-1.03084 -0.75331,-1.03084 -1.03084,2.14098 -2.815,3.44936 -4.16302,3.44936 -1.42732,0 -2.14098,-1.11014 -1.70486,-3.48901 z m -11.29962,13.12342 c -1.46697,0 -2.33922,-1.07049 -2.33922,-3.29077 0,-6.3833 3.05288,-10.38772 5.74893,-10.38772 1.50661,0 2.25992,1.11013 2.61675,1.90309 l -0.35683,1.86345 c -0.75331,3.96478 -2.85464,9.91195 -5.66963,9.91195 z m 33.74024,-20.69615 c 0.95154,-5.43175 -0.79296,-8.76217 -6.62119,-8.76217 -4.44055,0 -7.61237,2.49782 -8.76216,9.19829 l -0.67401,3.88549 h -1.8238 c -0.87225,0 -1.34803,0.47577 -1.34803,1.14978 0,0.51542 0.27754,0.83261 0.27754,0.83261 h 2.53746 l -4.28197,24.70058 c -0.55507,3.17182 -1.54626,4.16301 -3.01323,4.16301 -0.87225,0 -1.38767,-0.51542 -1.38767,-0.51542 0,0 -0.31718,0.27754 -0.31718,1.11014 0,1.26873 1.14978,2.25993 3.21147,2.25993 3.37006,0 5.59034,-1.78415 6.50224,-6.97802 l 4.36125,-24.74022 h 5.15422 l -1.46697,8.36568 c -0.35683,2.02204 -0.43613,3.33042 -0.43613,4.24232 0,3.17182 2.29958,5.23351 5.23351,5.23351 3.76655,0 6.97802,-3.44936 7.57273,-5.86788 0.1586,-0.67401 -0.19823,-1.03084 -0.71366,-1.03084 -0.87225,1.66521 -2.49781,3.44936 -4.75773,3.44936 -1.86345,0 -2.6564,-1.30838 -2.25993,-3.48901 l 1.9031,-10.90314 h 3.21147 c 0.87225,0 1.34802,-0.47578 1.34802,-1.14979 0,-0.51542 -0.27753,-0.8326 -0.27753,-0.8326 h -3.92513 z m -10.98244,4.32161 0.95154,-5.55069 c 0.71366,-4.24232 2.18063,-5.5507 3.40971,-5.5507 1.26873,0 2.02204,0.67402 2.02204,2.77535 0,0.95155 -0.27753,2.69605 -0.63436,4.79738 l -0.59472,3.52866 z"
         id="text67"
         style="font-size:39.6478px;font-family:'Magnolia Script';-inkscape-font-specification:'Magnolia Script, Normal';fill:url(#linearGradient61);fill-rule:evenodd;stroke:url(#linearGradient63);stroke-width:1.19845;stroke-linecap:round;paint-order:stroke markers fill"
         aria-label="LuxeCraft" />
    </g>
  </g>
</svg>
